PathFileType	4	(X / Y / Z)	Demo_140333_11_September_2019	Demo_140333_11_September_2019.trc
DataRate	CameraRate	NumFrames	NumMarkers	Units	OrigDataRate	OrigDataStartFrame	OrigNumFrames
50	50	14	25	m	50	170	960
Frame#	Time		SpineBase		SpineMid		Neck		Head		ShoulderLeft		ElbowLeft		WristLeft		HandLeft		ShoulderRight		ElbowRight		WristRight		HandRight		HipLeft		KneeLeft		AnkleLeft		FootLeft		HipRight		KneeRight		AnkleRight		FootRight		SpineShoulder		HandTipLeft		LeftThumb		HandTipRight		ThumbRight		
X1	Y1	Z1	X2	Y2	Z2	X3	Y3	Z3	X4	Y4	Z4	X5	Y5	Z5	X6	Y6	Z6	X7	Y7	Z7	X8	Y8	Z8	X9	Y9	Z9	X10	Y10	Z10	X11	Y11	Z11	X12	Y12	Z12	X13	Y13	Z13	X14	Y14	Z14	X15	Y15	Z15	X16	Y16	Z16	X17	Y17	Z17	X18	Y18	Z18	X19	Y19	Z19	X20	Y20	Z20	X21	Y21	Z21	X22	Y22	Z22	X23	Y23	Z23	X24	Y24	Z24	X25	Y25	Z25	
121	51.970	0.055	0.778	1.711	0.050	1.063	1.676	0.042	1.337	1.628	0.063	1.480	1.603	-0.107	1.223	1.610	-0.157	0.966	1.646	-0.197	0.778	1.596	-0.196	0.722	1.576	0.205	1.244	1.640	0.368	1.067	1.697	0.522	0.930	1.729	0.571	0.916	1.738	-0.018	0.782	1.668	-0.093	0.483	1.698	-0.136	0.180	1.852	-0.126	0.138	1.772	0.127	0.782	1.686	0.111	0.481	1.743	0.082	0.219	1.849	0.089	0.173	1.736	0.044	1.270	1.642	-0.182	0.650	1.593	-0.229	0.731	1.615	0.595	0.868	1.731	0.577	0.879	1.701
122	51.987	0.055	0.778	1.711	0.050	1.063	1.676	0.042	1.337	1.628	0.063	1.480	1.603	-0.107	1.223	1.610	-0.157	0.966	1.646	-0.197	0.778	1.596	-0.196	0.722	1.576	0.205	1.244	1.640	0.368	1.067	1.697	0.522	0.930	1.729	0.571	0.916	1.738	-0.018	0.782	1.668	-0.093	0.483	1.698	-0.136	0.180	1.852	-0.126	0.138	1.772	0.127	0.782	1.686	0.111	0.481	1.743	0.082	0.219	1.849	0.089	0.173	1.736	0.044	1.270	1.642	-0.182	0.650	1.593	-0.229	0.731	1.615	0.595	0.868	1.731	0.577	0.879	1.701
123	52.004	0.048	0.776	1.712	0.043	1.062	1.675	0.036	1.337	1.627	0.052	1.480	1.601	-0.114	1.223	1.608	-0.165	0.964	1.639	-0.203	0.776	1.580	-0.208	0.721	1.556	0.189	1.229	1.637	0.305	0.967	1.706	0.413	0.813	1.741	0.425	0.772	1.750	-0.026	0.780	1.670	-0.098	0.480	1.700	-0.133	0.192	1.846	-0.122	0.144	1.753	0.121	0.780	1.687	0.108	0.480	1.745	0.081	0.218	1.849	0.089	0.172	1.736	0.038	1.270	1.641	-0.187	0.648	1.573	-0.236	0.729	1.591	0.450	0.678	1.758	0.437	0.702	1.730
124	52.021	0.048	0.776	1.712	0.043	1.062	1.675	0.036	1.337	1.627	0.052	1.480	1.601	-0.114	1.223	1.608	-0.165	0.964	1.639	-0.203	0.776	1.580	-0.208	0.721	1.556	0.189	1.229	1.637	0.305	0.967	1.706	0.413	0.813	1.741	0.425	0.772	1.750	-0.026	0.780	1.670	-0.098	0.480	1.700	-0.133	0.192	1.846	-0.122	0.144	1.753	0.121	0.780	1.687	0.108	0.480	1.745	0.081	0.218	1.849	0.089	0.172	1.736	0.038	1.270	1.641	-0.187	0.648	1.573	-0.236	0.729	1.591	0.450	0.678	1.758	0.437	0.702	1.730
125	52.037	0.043	0.774	1.712	0.038	1.062	1.675	0.031	1.337	1.626	0.044	1.481	1.599	-0.119	1.223	1.606	-0.171	0.964	1.634	-0.209	0.778	1.569	-0.218	0.723	1.544	0.178	1.220	1.633	0.254	0.939	1.698	0.329	0.767	1.742	0.330	0.729	1.744	-0.031	0.778	1.671	-0.102	0.478	1.702	-0.131	0.200	1.842	-0.119	0.147	1.741	0.117	0.779	1.687	0.105	0.478	1.747	0.080	0.217	1.849	0.089	0.172	1.735	0.033	1.270	1.640	-0.197	0.649	1.557	-0.243	0.729	1.578	0.329	0.628	1.753	0.317	0.654	1.726
126	52.054	0.043	0.774	1.712	0.038	1.062	1.675	0.031	1.337	1.626	0.044	1.481	1.599	-0.119	1.223	1.606	-0.171	0.964	1.634	-0.209	0.778	1.569	-0.218	0.723	1.544	0.178	1.220	1.633	0.254	0.939	1.698	0.329	0.767	1.742	0.330	0.729	1.744	-0.031	0.778	1.671	-0.102	0.478	1.702	-0.131	0.200	1.842	-0.119	0.147	1.741	0.117	0.779	1.687	0.105	0.478	1.747	0.080	0.217	1.849	0.089	0.172	1.735	0.033	1.270	1.640	-0.197	0.649	1.557	-0.243	0.729	1.578	0.329	0.628	1.753	0.317	0.654	1.726
127	52.071	0.040	0.773	1.713	0.035	1.061	1.675	0.028	1.337	1.626	0.039	1.481	1.597	-0.122	1.223	1.606	-0.177	0.965	1.630	-0.217	0.782	1.559	-0.229	0.727	1.535	0.172	1.214	1.631	0.238	0.937	1.691	0.293	0.756	1.723	0.292	0.712	1.728	-0.035	0.777	1.673	-0.105	0.476	1.704	-0.130	0.204	1.840	-0.118	0.150	1.733	0.113	0.777	1.688	0.103	0.477	1.749	0.079	0.218	1.850	0.088	0.172	1.735	0.030	1.270	1.640	-0.208	0.653	1.543	-0.250	0.732	1.566	0.278	0.606	1.737	0.257	0.669	1.705
128	52.087	0.040	0.773	1.713	0.035	1.061	1.675	0.028	1.337	1.626	0.039	1.481	1.597	-0.122	1.223	1.606	-0.177	0.965	1.630	-0.217	0.782	1.559	-0.229	0.727	1.535	0.172	1.214	1.631	0.238	0.937	1.691	0.293	0.756	1.723	0.292	0.712	1.728	-0.035	0.777	1.673	-0.105	0.476	1.704	-0.130	0.204	1.840	-0.118	0.150	1.733	0.113	0.777	1.688	0.103	0.477	1.749	0.079	0.218	1.850	0.088	0.172	1.735	0.030	1.270	1.640	-0.208	0.653	1.543	-0.250	0.732	1.566	0.278	0.606	1.737	0.257	0.669	1.705
129	52.104	0.040	0.773	1.713	0.035	1.061	1.675	0.028	1.337	1.626	0.039	1.481	1.597	-0.122	1.223	1.606	-0.177	0.965	1.630	-0.217	0.782	1.559	-0.229	0.727	1.535	0.172	1.214	1.631	0.238	0.937	1.691	0.293	0.756	1.723	0.292	0.712	1.728	-0.035	0.777	1.673	-0.105	0.476	1.704	-0.130	0.204	1.840	-0.118	0.150	1.733	0.113	0.777	1.688	0.103	0.477	1.749	0.079	0.218	1.850	0.088	0.172	1.735	0.030	1.270	1.640	-0.208	0.653	1.543	-0.250	0.732	1.566	0.278	0.606	1.737	0.257	0.669	1.705
130	52.121	0.040	0.773	1.713	0.035	1.061	1.675	0.028	1.337	1.626	0.039	1.481	1.597	-0.122	1.223	1.606	-0.177	0.965	1.630	-0.217	0.782	1.559	-0.229	0.727	1.535	0.172	1.214	1.631	0.238	0.937	1.691	0.293	0.756	1.723	0.292	0.712	1.728	-0.035	0.777	1.673	-0.105	0.476	1.704	-0.130	0.204	1.840	-0.118	0.150	1.733	0.113	0.777	1.688	0.103	0.477	1.749	0.079	0.218	1.850	0.088	0.172	1.735	0.030	1.270	1.640	-0.208	0.653	1.543	-0.250	0.732	1.566	0.278	0.606	1.737	0.257	0.669	1.705
131	52.137	0.037	0.771	1.714	0.032	1.060	1.676	0.025	1.337	1.625	0.035	1.481	1.596	-0.124	1.223	1.605	-0.182	0.967	1.628	-0.223	0.786	1.554	-0.235	0.731	1.531	0.167	1.211	1.629	0.243	0.944	1.684	0.341	0.785	1.708	0.338	0.739	1.713	-0.038	0.776	1.673	-0.107	0.475	1.706	-0.129	0.207	1.839	-0.117	0.151	1.729	0.111	0.776	1.688	0.103	0.476	1.750	0.079	0.218	1.850	0.088	0.173	1.735	0.027	1.269	1.640	-0.216	0.658	1.534	-0.256	0.729	1.556	0.321	0.647	1.716	0.311	0.710	1.676
132	52.154	0.037	0.771	1.714	0.032	1.060	1.676	0.025	1.337	1.625	0.035	1.481	1.596	-0.124	1.223	1.605	-0.182	0.967	1.628	-0.223	0.786	1.554	-0.235	0.731	1.531	0.167	1.211	1.629	0.243	0.944	1.684	0.341	0.785	1.708	0.338	0.739	1.713	-0.038	0.776	1.673	-0.107	0.475	1.706	-0.129	0.207	1.839	-0.117	0.151	1.729	0.111	0.776	1.688	0.103	0.476	1.750	0.079	0.218	1.850	0.088	0.173	1.735	0.027	1.269	1.640	-0.216	0.658	1.534	-0.256	0.729	1.556	0.321	0.647	1.716	0.311	0.710	1.676
133	52.171	0.035	0.771	1.714	0.030	1.060	1.676	0.024	1.337	1.625	0.033	1.481	1.596	-0.126	1.223	1.605	-0.185	0.970	1.627	-0.227	0.790	1.552	-0.240	0.735	1.531	0.165	1.209	1.628	0.282	0.982	1.670	0.389	0.828	1.700	0.409	0.790	1.692	-0.041	0.775	1.674	-0.109	0.474	1.707	-0.128	0.208	1.838	-0.117	0.152	1.726	0.108	0.775	1.687	0.102	0.475	1.751	0.078	0.218	1.850	0.087	0.173	1.734	0.025	1.269	1.640	-0.222	0.661	1.529	-0.260	0.730	1.551	0.400	0.704	1.686	0.379	0.760	1.660
134	52.188	0.035	0.771	1.714	0.030	1.060	1.676	0.024	1.337	1.625	0.033	1.481	1.596	-0.126	1.223	1.605	-0.185	0.970	1.627	-0.227	0.790	1.552	-0.240	0.735	1.531	0.165	1.209	1.628	0.282	0.982	1.670	0.389	0.828	1.700	0.409	0.790	1.692	-0.041	0.775	1.674	-0.109	0.474	1.707	-0.128	0.208	1.838	-0.117	0.152	1.726	0.108	0.775	1.687	0.102	0.475	1.751	0.078	0.218	1.850	0.087	0.173	1.734	0.025	1.269	1.640	-0.222	0.661	1.529	-0.260	0.730	1.551	0.400	0.704	1.686	0.379	0.760	1.660
